<svg width="64" height="64" viewBox="0 0 64 64" fill="none" xmlns="http://www.w3.org/2000/svg">
<rect width="64" height="64" rx="8" fill="url(#paint0_linear_140_956)"/>
<path d="M32 19C24.8281 19 19 24.8281 19 32C19 39.1719 24.8281 45 32 45C39.1719 45 45 39.1719 45 32C45 24.8281 39.1719 19 32 19ZM32 20C38.6328 20 44 25.3672 44 32C44 38.6328 38.6328 44 32 44C25.3672 44 20 38.6328 20 32C20 25.3672 25.3672 20 32 20ZM32 22C26.4883 22 22 26.4883 22 32C22 37.5117 26.4883 42 32 42C37.5117 42 42 37.5117 42 32C42 26.4883 37.5117 22 32 22ZM32 24C36.4297 24 40 27.5703 40 32C40 36.4297 36.4297 40 32 40C27.5703 40 24 36.4297 24 32C24 27.5703 27.5703 24 32 24ZM32 26C28.6992 26 26 28.6992 26 32C26 35.3008 28.6992 38 32 38C35.3008 38 38 35.3008 38 32C38 28.6992 35.3008 26 32 26ZM32 28C34.2227 28 36 29.7773 36 32C36 34.2227 34.2227 36 32 36C29.7773 36 28 34.2227 28 32C28 29.7773 29.7773 28 32 28ZM32 30C30.8945 30 30 30.8945 30 32C30 33.1055 30.8945 34 32 34C33.1055 34 34 33.1055 34 32C34 30.8945 33.1055 30 32 30Z" fill="#98FF03"/>
<defs>
<linearGradient id="paint0_linear_140_956" x1="32.9467" y1="-4.17391" x2="69.1199" y2="35.5259" gradientUnits="userSpaceOnUse">
<stop stop-color="#40454A"/>
<stop offset="1" stop-color="#292C2E"/>
</linearGradient>
</defs>
</svg>
