<svg width="64" height="64" viewBox="0 0 64 64" fill="none" xmlns="http://www.w3.org/2000/svg">
<rect width="64" height="64" rx="8" fill="url(#paint0_linear_153_292)"/>
<path d="M35.3125 22.9688C34.7578 22.9727 34.207 23 33.625 23.1563C33.043 23.3125 32.4609 23.5625 31.8438 23.9688C31.0781 23.5195 30.3359 23.1484 29.625 23.0625C28.7422 22.9531 27.9219 23.0117 26.9688 23.0313C25.8398 23.0547 25.1016 23.6328 23.9062 24.0938C22.7109 24.5547 21.1719 25 19 25H18V34.625L18.5625 34.9063L20.4062 35.8125L26.9688 43.125L27 43.1563C27.75 43.8984 28.7617 44.082 29.6562 44.0313C30.5508 43.9805 31.3906 43.7188 32.0625 43.3125C33.5391 42.4219 37.5625 39.625 37.5625 39.625L37.6562 39.5625L37.7188 39.5C38.1953 39.0274 38.4336 38.4492 38.5938 37.8438L42.4375 35.9063L45.3125 34.9375L46 34.7188V25H45C42.832 25 41.2891 24.5313 40.0938 24.0625C38.8984 23.5938 38.1719 23.0234 37.0312 23C36.4219 22.9883 35.8672 22.9649 35.3125 22.9688ZM35.3438 24.9688C35.793 24.9649 36.3125 24.9883 36.9688 25C37.0742 25.0039 38.0352 25.4141 39.375 25.9375C40.5078 26.3828 42.082 26.7774 44 26.9063V33.2813L41.6875 34.0625H41.625L41.5625 34.0938L38.5312 35.625C38.3633 35.168 38.1328 34.7461 37.7812 34.375L37.7188 34.2813L33.4688 29.0625L32.8438 28.2813L32.0625 28.9063L29.375 31.0938C28.4727 31.7188 27.7422 31.5391 27 31.1875C26.7852 31.0859 26.7969 31.0547 26.625 30.9375L31.1875 27.1563L31.25 27.0938C32.6055 25.75 33.4375 25.2852 34.1562 25.0938C34.5156 24.9961 34.8945 24.9727 35.3438 24.9688ZM28.375 25C28.7578 24.9922 29.0781 24.9961 29.375 25.0313C29.6367 25.0625 29.9336 25.2852 30.1875 25.375C30.0859 25.4688 30.0117 25.5234 29.9062 25.625C29.8828 25.6484 29.8672 25.6641 29.8438 25.6875L24.375 30.2188L23.5312 30.9063L24.2812 31.6875C24.2812 31.6875 25.0039 32.4688 26.125 33C27.2461 33.5313 28.9766 33.832 30.5312 32.75L30.5938 32.6875L32.5312 31.0938L36.2188 35.625L36.25 35.6875L36.2812 35.7188C36.9414 36.3711 36.9258 37.3984 36.2812 38.0625C36.2734 38.0703 36.2891 38.0859 36.2812 38.0938C36.2734 38.0977 36.1406 38.1758 36.125 38.1875L34.8125 36.4063L33.1875 37.5938L34.4688 39.3125C33.9492 39.6641 33.7148 39.8477 33.1562 40.2188L31.8125 38.4063L30.1875 39.5938L31.4688 41.3125C31.3555 41.3828 31.1211 41.5391 31.0312 41.5938C30.7148 41.7852 30.1055 42 29.5625 42.0313C29.0508 42.0586 28.6602 41.9414 28.4688 41.7813L28.4375 41.75L21.75 34.3438L21.625 34.1875L20 33.375V26.9063C21.9102 26.7813 23.4961 26.4024 24.625 25.9688C25.9609 25.457 26.9141 25.0352 27.0312 25.0313C27.543 25.0195 27.9922 25.0078 28.375 25Z" fill="#98FF03"/>
<defs>
<linearGradient id="paint0_linear_153_292" x1="32.9467" y1="-4.17391" x2="69.1199" y2="35.5259" gradientUnits="userSpaceOnUse">
<stop stop-color="#40454A"/>
<stop offset="1" stop-color="#292C2E"/>
</linearGradient>
</defs>
</svg>
