<svg width="118" height="31" viewBox="0 0 118 31" fill="none" xmlns="http://www.w3.org/2000/svg">
<path d="M91.8924 23.2227C90.4006 23.2227 89.0386 22.8344 87.8062 22.0579C86.5847 21.2813 85.6064 20.2422 84.8713 18.9406C84.147 17.6281 83.7849 16.1789 83.7849 14.5929C83.7849 13.3897 83.9957 12.2686 84.4173 11.2295C84.8388 10.1795 85.4172 9.26075 86.1523 8.47324C86.8982 7.67479 87.763 7.05134 88.7467 6.60289C89.7304 6.15445 90.779 5.93022 91.8924 5.93022C93.3842 5.93022 94.7409 6.31851 95.9624 7.09509C97.1948 7.87167 98.1731 8.91622 98.8974 10.2287C99.6325 11.5413 100 12.996 100 14.5929C100 15.7851 99.7892 16.9007 99.3676 17.9398C98.946 18.9789 98.3623 19.8977 97.6164 20.6961C96.8813 21.4836 96.0219 22.1016 95.0382 22.5501C94.0653 22.9985 93.0167 23.2227 91.8924 23.2227ZM91.8924 19.8102C92.7897 19.8102 93.595 19.5695 94.3085 19.0883C95.0219 18.607 95.5841 17.9726 95.9949 17.1851C96.4165 16.3867 96.6273 15.5226 96.6273 14.5929C96.6273 13.6413 96.411 12.7663 95.9786 11.9678C95.557 11.1694 94.9895 10.535 94.2761 10.0647C93.5626 9.58342 92.7681 9.34279 91.8924 9.34279C91.006 9.34279 90.2007 9.58342 89.4764 10.0647C88.7629 10.5459 88.1954 11.1858 87.7738 11.9842C87.363 12.7827 87.1576 13.6522 87.1576 14.5929C87.1576 15.5663 87.3738 16.4468 87.8062 17.2343C88.2386 18.0219 88.8116 18.6508 89.525 19.1211C90.2493 19.5805 91.0384 19.8102 91.8924 19.8102Z" fill="url(#paint0_linear_58_431)"/>
<path d="M91.8924 23.2227C90.4006 23.2227 89.0386 22.8344 87.8062 22.0579C86.5847 21.2813 85.6064 20.2422 84.8713 18.9406C84.147 17.6281 83.7849 16.1789 83.7849 14.5929C83.7849 13.3897 83.9957 12.2686 84.4173 11.2295C84.8388 10.1795 85.4172 9.26075 86.1523 8.47324C86.8982 7.67479 87.763 7.05134 88.7467 6.60289C89.7304 6.15445 90.779 5.93022 91.8924 5.93022C93.3842 5.93022 94.7409 6.31851 95.9624 7.09509C97.1948 7.87167 98.1731 8.91622 98.8974 10.2287C99.6325 11.5413 100 12.996 100 14.5929C100 15.7851 99.7892 16.9007 99.3676 17.9398C98.946 18.9789 98.3623 19.8977 97.6164 20.6961C96.8813 21.4836 96.0219 22.1016 95.0382 22.5501C94.0653 22.9985 93.0167 23.2227 91.8924 23.2227ZM91.8924 19.8102C92.7897 19.8102 93.595 19.5695 94.3085 19.0883C95.0219 18.607 95.5841 17.9726 95.9949 17.1851C96.4165 16.3867 96.6273 15.5226 96.6273 14.5929C96.6273 13.6413 96.411 12.7663 95.9786 11.9678C95.557 11.1694 94.9895 10.535 94.2761 10.0647C93.5626 9.58342 92.7681 9.34279 91.8924 9.34279C91.006 9.34279 90.2007 9.58342 89.4764 10.0647C88.7629 10.5459 88.1954 11.1858 87.7738 11.9842C87.363 12.7827 87.1576 13.6522 87.1576 14.5929C87.1576 15.5663 87.3738 16.4468 87.8062 17.2343C88.2386 18.0219 88.8116 18.6508 89.525 19.1211C90.2493 19.5805 91.0384 19.8102 91.8924 19.8102Z" fill="url(#paint1_radial_58_431)" fill-opacity="0.2"/>
<path d="M70.4836 12.5093V22.7962H67.1108V13.346C67.1108 12.6132 66.9324 11.946 66.5757 11.3444C66.2298 10.7428 65.7595 10.267 65.165 9.91702C64.5812 9.55607 63.9218 9.3756 63.1867 9.3756C62.4733 9.3756 61.8193 9.55607 61.2247 9.91702C60.6301 10.267 60.1545 10.7428 59.7978 11.3444C59.441 11.946 59.2627 12.6132 59.2627 13.346V22.7962H55.8899V6.38961H59.2627V8.1287C59.8248 7.45056 60.5166 6.91462 61.3382 6.52086C62.1598 6.1271 63.0462 5.93022 63.9975 5.93022C65.1974 5.93022 66.2892 6.22554 67.273 6.81618C68.2567 7.40681 69.035 8.1998 69.6079 9.19513C70.1917 10.1905 70.4836 11.2952 70.4836 12.5093Z" fill="url(#paint2_linear_58_431)"/>
<path d="M70.4836 12.5093V22.7962H67.1108V13.346C67.1108 12.6132 66.9324 11.946 66.5757 11.3444C66.2298 10.7428 65.7595 10.267 65.165 9.91702C64.5812 9.55607 63.9218 9.3756 63.1867 9.3756C62.4733 9.3756 61.8193 9.55607 61.2247 9.91702C60.6301 10.267 60.1545 10.7428 59.7978 11.3444C59.441 11.946 59.2627 12.6132 59.2627 13.346V22.7962H55.8899V6.38961H59.2627V8.1287C59.8248 7.45056 60.5166 6.91462 61.3382 6.52086C62.1598 6.1271 63.0462 5.93022 63.9975 5.93022C65.1974 5.93022 66.2892 6.22554 67.273 6.81618C68.2567 7.40681 69.035 8.1998 69.6079 9.19513C70.1917 10.1905 70.4836 11.2952 70.4836 12.5093Z" fill="url(#paint3_radial_58_431)" fill-opacity="0.2"/>
<path d="M45.7585 23.2227C44.2667 23.2227 42.9046 22.8344 41.6723 22.0579C40.4507 21.2813 39.4724 20.2422 38.7373 18.9406C38.0131 17.6281 37.6509 16.1789 37.6509 14.5929C37.6509 13.3897 37.8617 12.2686 38.2833 11.2295C38.7049 10.1795 39.2833 9.26075 40.0183 8.47324C40.7642 7.67479 41.629 7.05134 42.6128 6.60289C43.5965 6.15445 44.6451 5.93022 45.7585 5.93022C47.0017 5.93022 48.1421 6.19273 49.1799 6.71774C50.2177 7.23181 51.1041 7.94823 51.8392 8.867C52.5743 9.77483 53.1148 10.8248 53.4607 12.0171C53.8066 13.1983 53.9093 14.4562 53.7688 15.7906H41.2669C41.4074 16.5453 41.6777 17.2289 42.0777 17.8414C42.4884 18.443 43.0073 18.9188 43.6343 19.2688C44.2721 19.6188 44.9802 19.7992 45.7585 19.8102C46.5801 19.8102 47.326 19.6024 47.9962 19.1867C48.6772 18.7711 49.2339 18.1969 49.6664 17.464L53.0877 18.268C52.4391 19.7227 51.4608 20.9149 50.1528 21.8446C48.8448 22.7634 47.38 23.2227 45.7585 23.2227ZM41.1534 13.1819H50.3636C50.2555 12.3944 49.9798 11.6835 49.5366 11.0491C49.1042 10.4037 48.5583 9.89514 47.8989 9.52326C47.2503 9.14044 46.5368 8.94903 45.7585 8.94903C44.991 8.94903 44.2775 9.13497 43.6181 9.50685C42.9695 9.87873 42.429 10.3873 41.9966 11.0327C41.575 11.667 41.2939 12.3835 41.1534 13.1819Z" fill="url(#paint4_linear_58_431)"/>
<path d="M45.7585 23.2227C44.2667 23.2227 42.9046 22.8344 41.6723 22.0579C40.4507 21.2813 39.4724 20.2422 38.7373 18.9406C38.0131 17.6281 37.6509 16.1789 37.6509 14.5929C37.6509 13.3897 37.8617 12.2686 38.2833 11.2295C38.7049 10.1795 39.2833 9.26075 40.0183 8.47324C40.7642 7.67479 41.629 7.05134 42.6128 6.60289C43.5965 6.15445 44.6451 5.93022 45.7585 5.93022C47.0017 5.93022 48.1421 6.19273 49.1799 6.71774C50.2177 7.23181 51.1041 7.94823 51.8392 8.867C52.5743 9.77483 53.1148 10.8248 53.4607 12.0171C53.8066 13.1983 53.9093 14.4562 53.7688 15.7906H41.2669C41.4074 16.5453 41.6777 17.2289 42.0777 17.8414C42.4884 18.443 43.0073 18.9188 43.6343 19.2688C44.2721 19.6188 44.9802 19.7992 45.7585 19.8102C46.5801 19.8102 47.326 19.6024 47.9962 19.1867C48.6772 18.7711 49.2339 18.1969 49.6664 17.464L53.0877 18.268C52.4391 19.7227 51.4608 20.9149 50.1528 21.8446C48.8448 22.7634 47.38 23.2227 45.7585 23.2227ZM41.1534 13.1819H50.3636C50.2555 12.3944 49.9798 11.6835 49.5366 11.0491C49.1042 10.4037 48.5583 9.89514 47.8989 9.52326C47.2503 9.14044 46.5368 8.94903 45.7585 8.94903C44.991 8.94903 44.2775 9.13497 43.6181 9.50685C42.9695 9.87873 42.429 10.3873 41.9966 11.0327C41.575 11.667 41.2939 12.3835 41.1534 13.1819Z" fill="url(#paint5_radial_58_431)" fill-opacity="0.2"/>
<path d="M32.1038 6.39016H35.4765V23.2233C35.4765 24.3499 35.2387 25.389 34.7631 26.3405C34.2982 27.2921 33.6658 28.1124 32.8659 28.8015C32.066 29.5015 31.1471 30.043 30.1093 30.4258C29.0824 30.8086 28.0068 31 26.8825 31C25.7474 31 24.6556 30.7539 23.607 30.2617C22.5585 29.7804 21.6342 29.1242 20.8343 28.2929C20.0451 27.4617 19.456 26.521 19.0668 25.471L22.1639 24.06C22.3801 24.7382 22.726 25.3397 23.2017 25.8647C23.6881 26.3898 24.2502 26.8054 24.888 27.1116C25.5367 27.4179 26.2015 27.571 26.8825 27.571C27.5527 27.571 28.1959 27.4617 28.8121 27.2429C29.4391 27.0351 29.9958 26.7398 30.4823 26.3569C30.9795 25.9741 31.3741 25.5147 31.666 24.9788C31.9579 24.4428 32.1038 23.8577 32.1038 23.2233V20.4506C31.5741 21.2818 30.8931 21.9545 30.0607 22.4686C29.2283 22.9717 28.2608 23.2233 27.1582 23.2233C26.0123 23.2233 24.9313 22.9991 23.9151 22.5506C22.899 22.1022 22.0072 21.4842 21.2396 20.6967C20.4721 19.8982 19.8722 18.9795 19.4398 17.9404C19.0074 16.9013 18.7911 15.7857 18.7911 14.5934C18.7911 13.4012 19.0074 12.2856 19.4398 11.2465C19.8722 10.1965 20.4721 9.27772 21.2396 8.4902C22.0072 7.69175 22.899 7.0683 23.9151 6.61985C24.9313 6.17141 26.0123 5.94718 27.1582 5.94718C28.2608 5.94718 29.2283 6.20422 30.0607 6.71829C30.8931 7.22143 31.5741 7.8941 32.1038 8.7363V6.39016ZM27.1906 19.9256C28.1311 19.9256 28.9526 19.6849 29.6553 19.2037C30.358 18.7115 30.9039 18.0607 31.293 17.2513C31.6822 16.4419 31.8768 15.556 31.8768 14.5934C31.8768 13.609 31.6768 12.7176 31.2768 11.9192C30.8877 11.1098 30.3417 10.4645 29.6391 9.9832C28.9364 9.491 28.1203 9.2449 27.1906 9.2449C26.2825 9.2449 25.4502 9.48553 24.6935 9.96679C23.9476 10.4481 23.353 11.0934 22.9098 11.9028C22.4666 12.7122 22.245 13.609 22.245 14.5934C22.245 15.5778 22.4666 16.4747 22.9098 17.2841C23.3638 18.0935 23.9638 18.7388 24.7097 19.2201C25.4664 19.6904 26.2934 19.9256 27.1906 19.9256Z" fill="url(#paint6_linear_58_431)"/>
<path d="M32.1038 6.39016H35.4765V23.2233C35.4765 24.3499 35.2387 25.389 34.7631 26.3405C34.2982 27.2921 33.6658 28.1124 32.8659 28.8015C32.066 29.5015 31.1471 30.043 30.1093 30.4258C29.0824 30.8086 28.0068 31 26.8825 31C25.7474 31 24.6556 30.7539 23.607 30.2617C22.5585 29.7804 21.6342 29.1242 20.8343 28.2929C20.0451 27.4617 19.456 26.521 19.0668 25.471L22.1639 24.06C22.3801 24.7382 22.726 25.3397 23.2017 25.8647C23.6881 26.3898 24.2502 26.8054 24.888 27.1116C25.5367 27.4179 26.2015 27.571 26.8825 27.571C27.5527 27.571 28.1959 27.4617 28.8121 27.2429C29.4391 27.0351 29.9958 26.7398 30.4823 26.3569C30.9795 25.9741 31.3741 25.5147 31.666 24.9788C31.9579 24.4428 32.1038 23.8577 32.1038 23.2233V20.4506C31.5741 21.2818 30.8931 21.9545 30.0607 22.4686C29.2283 22.9717 28.2608 23.2233 27.1582 23.2233C26.0123 23.2233 24.9313 22.9991 23.9151 22.5506C22.899 22.1022 22.0072 21.4842 21.2396 20.6967C20.4721 19.8982 19.8722 18.9795 19.4398 17.9404C19.0074 16.9013 18.7911 15.7857 18.7911 14.5934C18.7911 13.4012 19.0074 12.2856 19.4398 11.2465C19.8722 10.1965 20.4721 9.27772 21.2396 8.4902C22.0072 7.69175 22.899 7.0683 23.9151 6.61985C24.9313 6.17141 26.0123 5.94718 27.1582 5.94718C28.2608 5.94718 29.2283 6.20422 30.0607 6.71829C30.8931 7.22143 31.5741 7.8941 32.1038 8.7363V6.39016ZM27.1906 19.9256C28.1311 19.9256 28.9526 19.6849 29.6553 19.2037C30.358 18.7115 30.9039 18.0607 31.293 17.2513C31.6822 16.4419 31.8768 15.556 31.8768 14.5934C31.8768 13.609 31.6768 12.7176 31.2768 11.9192C30.8877 11.1098 30.3417 10.4645 29.6391 9.9832C28.9364 9.491 28.1203 9.2449 27.1906 9.2449C26.2825 9.2449 25.4502 9.48553 24.6935 9.96679C23.9476 10.4481 23.353 11.0934 22.9098 11.9028C22.4666 12.7122 22.245 13.609 22.245 14.5934C22.245 15.5778 22.4666 16.4747 22.9098 17.2841C23.3638 18.0935 23.9638 18.7388 24.7097 19.2201C25.4664 19.6904 26.2934 19.9256 27.1906 19.9256Z" fill="url(#paint7_radial_58_431)" fill-opacity="0.2"/>
<path d="M13.5883 6.38961H16.961V22.7962H13.5721L13.4424 20.4172C12.9667 21.2594 12.3235 21.9376 11.5128 22.4516C10.702 22.9657 9.7453 23.2227 8.64267 23.2227C7.45356 23.2227 6.33472 22.9985 5.28614 22.5501C4.23756 22.0907 3.3133 21.4563 2.51335 20.6469C1.72421 19.8375 1.10804 18.9078 0.664821 17.8578C0.221607 16.7968 0 15.6593 0 14.4452C0 13.2749 0.216202 12.1757 0.648606 11.1475C1.08101 10.1084 1.68097 9.2006 2.44849 8.42402C3.216 7.64744 4.10243 7.0404 5.10777 6.60289C6.12392 6.15445 7.21034 5.93022 8.36702 5.93022C9.54532 5.93022 10.5831 6.20367 11.4803 6.75055C12.3884 7.2865 13.1397 7.97557 13.7342 8.81778L13.5883 6.38961ZM8.5616 19.925C9.51289 19.925 10.3453 19.6899 11.0587 19.2195C11.7722 18.7383 12.3235 18.093 12.7127 17.2836C13.1126 16.4742 13.3126 15.5773 13.3126 14.5929C13.3126 13.5976 13.1126 12.6952 12.7127 11.8858C12.3127 11.0764 11.756 10.4366 11.0425 9.96624C10.3399 9.48498 9.51289 9.24435 8.5616 9.24435C7.62112 9.24435 6.76172 9.48498 5.98339 9.96624C5.20506 10.4475 4.58889 11.0928 4.13486 11.9022C3.68084 12.7116 3.45383 13.6085 3.45383 14.5929C3.45383 15.5882 3.68624 16.4906 4.15108 17.3C4.62672 18.0984 5.2483 18.7383 6.01582 19.2195C6.79415 19.6899 7.64274 19.925 8.5616 19.925Z" fill="url(#paint8_linear_58_431)"/>
<path d="M13.5883 6.38961H16.961V22.7962H13.5721L13.4424 20.4172C12.9667 21.2594 12.3235 21.9376 11.5128 22.4516C10.702 22.9657 9.7453 23.2227 8.64267 23.2227C7.45356 23.2227 6.33472 22.9985 5.28614 22.5501C4.23756 22.0907 3.3133 21.4563 2.51335 20.6469C1.72421 19.8375 1.10804 18.9078 0.664821 17.8578C0.221607 16.7968 0 15.6593 0 14.4452C0 13.2749 0.216202 12.1757 0.648606 11.1475C1.08101 10.1084 1.68097 9.2006 2.44849 8.42402C3.216 7.64744 4.10243 7.0404 5.10777 6.60289C6.12392 6.15445 7.21034 5.93022 8.36702 5.93022C9.54532 5.93022 10.5831 6.20367 11.4803 6.75055C12.3884 7.2865 13.1397 7.97557 13.7342 8.81778L13.5883 6.38961ZM8.5616 19.925C9.51289 19.925 10.3453 19.6899 11.0587 19.2195C11.7722 18.7383 12.3235 18.093 12.7127 17.2836C13.1126 16.4742 13.3126 15.5773 13.3126 14.5929C13.3126 13.5976 13.1126 12.6952 12.7127 11.8858C12.3127 11.0764 11.756 10.4366 11.0425 9.96624C10.3399 9.48498 9.51289 9.24435 8.5616 9.24435C7.62112 9.24435 6.76172 9.48498 5.98339 9.96624C5.20506 10.4475 4.58889 11.0928 4.13486 11.9022C3.68084 12.7116 3.45383 13.6085 3.45383 14.5929C3.45383 15.5882 3.68624 16.4906 4.15108 17.3C4.62672 18.0984 5.2483 18.7383 6.01582 19.2195C6.79415 19.6899 7.64274 19.925 8.5616 19.925Z" fill="url(#paint9_radial_58_431)" fill-opacity="0.2"/>
<path d="M73.056 6.00337H79.9996V20.1668H82.8894V23.3392H73.056V20.1668H76.1834V9.19176H73.056V6.00337Z" fill="url(#paint10_linear_58_431)"/>
<path d="M73.056 6.00337H79.9996V20.1668H82.8894V23.3392H73.056V20.1668H76.1834V9.19176H73.056V6.00337Z" fill="url(#paint11_radial_58_431)" fill-opacity="0.2"/>
<path fill-rule="evenodd" clip-rule="evenodd" d="M76.1678 0V3.79941H79.9996V0H76.1678Z" fill="url(#paint12_linear_58_431)"/>
<path fill-rule="evenodd" clip-rule="evenodd" d="M76.1678 0V3.79941H79.9996V0H76.1678Z" fill="url(#paint13_radial_58_431)" fill-opacity="0.2"/>
<path d="M109.505 0V1.04H107.271V7H106.229V1.04H104V0H109.505Z" fill="url(#paint14_linear_58_431)"/>
<path d="M109.505 0V1.04H107.271V7H106.229V1.04H104V0H109.505Z" fill="url(#paint15_radial_58_431)" fill-opacity="0.2"/>
<path d="M110.011 7L111.369 0H112.21L114.008 4.715L115.796 0H116.638L118 7H116.938L116.032 2.315L114.354 6.735H113.652L111.98 2.315L111.073 7H110.011Z" fill="url(#paint16_linear_58_431)"/>
<path d="M110.011 7L111.369 0H112.21L114.008 4.715L115.796 0H116.638L118 7H116.938L116.032 2.315L114.354 6.735H113.652L111.98 2.315L111.073 7H110.011Z" fill="url(#paint17_radial_58_431)" fill-opacity="0.2"/>
<defs>
<linearGradient id="paint0_linear_58_431" x1="51.4793" y1="-2.02175" x2="60.6859" y2="30.5723" gradientUnits="userSpaceOnUse">
<stop stop-color="#55595C"/>
<stop offset="1"/>
</linearGradient>
<radialGradient id="paint1_radial_58_431" cx="0" cy="0" r="1" gradientTransform="matrix(62.5628 16.7917 -3.15144 19.3945 28.1407 -3.22917)" gradientUnits="userSpaceOnUse">
<stop stop-color="white"/>
<stop offset="1" stop-color="white" stop-opacity="0"/>
</radialGradient>
<linearGradient id="paint2_linear_58_431" x1="51.4793" y1="-2.02175" x2="60.6859" y2="30.5723" gradientUnits="userSpaceOnUse">
<stop stop-color="#55595C"/>
<stop offset="1"/>
</linearGradient>
<radialGradient id="paint3_radial_58_431" cx="0" cy="0" r="1" gradientTransform="matrix(62.5628 16.7917 -3.15144 19.3945 28.1407 -3.22917)" gradientUnits="userSpaceOnUse">
<stop stop-color="white"/>
<stop offset="1" stop-color="white" stop-opacity="0"/>
</radialGradient>
<linearGradient id="paint4_linear_58_431" x1="51.4793" y1="-2.02175" x2="60.6859" y2="30.5723" gradientUnits="userSpaceOnUse">
<stop stop-color="#55595C"/>
<stop offset="1"/>
</linearGradient>
<radialGradient id="paint5_radial_58_431" cx="0" cy="0" r="1" gradientTransform="matrix(62.5628 16.7917 -3.15144 19.3945 28.1407 -3.22917)" gradientUnits="userSpaceOnUse">
<stop stop-color="white"/>
<stop offset="1" stop-color="white" stop-opacity="0"/>
</radialGradient>
<linearGradient id="paint6_linear_58_431" x1="51.4793" y1="-2.02175" x2="60.6859" y2="30.5723" gradientUnits="userSpaceOnUse">
<stop stop-color="#55595C"/>
<stop offset="1"/>
</linearGradient>
<radialGradient id="paint7_radial_58_431" cx="0" cy="0" r="1" gradientTransform="matrix(62.5628 16.7917 -3.15144 19.3945 28.1407 -3.22917)" gradientUnits="userSpaceOnUse">
<stop stop-color="white"/>
<stop offset="1" stop-color="white" stop-opacity="0"/>
</radialGradient>
<linearGradient id="paint8_linear_58_431" x1="51.4793" y1="-2.02175" x2="60.6859" y2="30.5723" gradientUnits="userSpaceOnUse">
<stop stop-color="#55595C"/>
<stop offset="1"/>
</linearGradient>
<radialGradient id="paint9_radial_58_431" cx="0" cy="0" r="1" gradientTransform="matrix(62.5628 16.7917 -3.15144 19.3945 28.1407 -3.22917)" gradientUnits="userSpaceOnUse">
<stop stop-color="white"/>
<stop offset="1" stop-color="white" stop-opacity="0"/>
</radialGradient>
<linearGradient id="paint10_linear_58_431" x1="51.4793" y1="-2.02175" x2="60.6859" y2="30.5723" gradientUnits="userSpaceOnUse">
<stop stop-color="#55595C"/>
<stop offset="1"/>
</linearGradient>
<radialGradient id="paint11_radial_58_431" cx="0" cy="0" r="1" gradientTransform="matrix(62.5628 16.7917 -3.15144 19.3945 28.1407 -3.22917)" gradientUnits="userSpaceOnUse">
<stop stop-color="white"/>
<stop offset="1" stop-color="white" stop-opacity="0"/>
</radialGradient>
<linearGradient id="paint12_linear_58_431" x1="51.4793" y1="-2.02175" x2="60.6859" y2="30.5723" gradientUnits="userSpaceOnUse">
<stop stop-color="#55595C"/>
<stop offset="1"/>
</linearGradient>
<radialGradient id="paint13_radial_58_431" cx="0" cy="0" r="1" gradientTransform="matrix(62.5628 16.7917 -3.15144 19.3945 28.1407 -3.22917)" gradientUnits="userSpaceOnUse">
<stop stop-color="white"/>
<stop offset="1" stop-color="white" stop-opacity="0"/>
</radialGradient>
<linearGradient id="paint14_linear_58_431" x1="74.8912" y1="-0.942035" x2="78.4369" y2="14.6506" gradientUnits="userSpaceOnUse">
<stop stop-color="#555D64"/>
<stop offset="1" stop-color="#292C2E"/>
</linearGradient>
<radialGradient id="paint15_radial_58_431" cx="0" cy="0" r="1" gradientTransform="matrix(36.21 7.82407 -1.82399 9.03685 61.3833 -1.50463)" gradientUnits="userSpaceOnUse">
<stop stop-color="white"/>
<stop offset="1" stop-color="white" stop-opacity="0"/>
</radialGradient>
<linearGradient id="paint16_linear_58_431" x1="74.8912" y1="-0.942035" x2="78.4369" y2="14.6506" gradientUnits="userSpaceOnUse">
<stop stop-color="#555D64"/>
<stop offset="1" stop-color="#292C2E"/>
</linearGradient>
<radialGradient id="paint17_radial_58_431" cx="0" cy="0" r="1" gradientTransform="matrix(36.21 7.82407 -1.82399 9.03685 61.3833 -1.50463)" gradientUnits="userSpaceOnUse">
<stop stop-color="white"/>
<stop offset="1" stop-color="white" stop-opacity="0"/>
</radialGradient>
</defs>
</svg>
