<svg width="400" height="120" viewBox="0 0 400 120" fill="none" xmlns="http://www.w3.org/2000/svg">
<path d="M-237.568 -208H-274V-171.526M-237.568 -208V-171.526M-237.568 -208H-201.136M-237.568 -171.526H-274M-237.568 -171.526V-135.053M-237.568 -171.526H-201.136M-274 -171.526V-135.053M-237.568 -135.053H-274M-237.568 -135.053V-98.5789M-237.568 -135.053H-201.136M-274 -135.053V-98.5789M-237.568 -98.5789H-274M-237.568 -98.5789V-62.1053M-237.568 -98.5789H-201.136M-274 -98.5789V-62.1053M-237.568 -62.1053H-274M-237.568 -62.1053V-25.6316M-237.568 -62.1053H-201.136M-274 -62.1053V-25.6316M-237.568 -25.6316H-274M-237.568 -25.6316V10.8421M-237.568 -25.6316H-201.136M-274 -25.6316V10.8421M-237.568 10.8421H-274M-237.568 10.8421V47.3158M-237.568 10.8421H-201.136M-274 10.8421V47.3158M-237.568 47.3158H-274M-237.568 47.3158V83.7895M-237.568 47.3158H-201.136M-274 47.3158V83.7895M-237.568 83.7895H-274M-237.568 83.7895V120.263M-237.568 83.7895H-201.136M-274 83.7895V120.263M-237.568 120.263H-274M-237.568 120.263V156.737M-237.568 120.263H-201.136M-274 120.263V156.737M-237.568 156.737H-274M-237.568 156.737V193.211M-237.568 156.737H-201.136M-274 156.737V193.211M-237.568 193.211H-274M-237.568 193.211V229.684M-237.568 193.211H-201.136M-274 193.211V229.684M-237.568 229.684H-274M-237.568 229.684V266.158M-237.568 229.684H-201.136M-274 229.684V266.158M-237.568 266.158H-274M-237.568 266.158V302.632M-237.568 266.158H-201.136M-274 266.158V302.632M-237.568 302.632H-274M-237.568 302.632V339.105M-237.568 302.632H-201.136M-274 302.632V339.105M-237.568 339.105H-274M-237.568 339.105V375.579M-237.568 339.105H-201.136M-274 339.105V375.579M-237.568 375.579H-274M-237.568 375.579V412.053M-237.568 375.579H-201.136M-274 375.579V412.053M-237.568 412.053H-274M-237.568 412.053V448.526M-237.568 412.053H-201.136M-274 412.053V448.526M-237.568 448.526H-274M-237.568 448.526V485M-237.568 448.526H-201.136M-274 448.526V485H-237.568M-237.568 485H-201.136M-201.136 -208V-171.526M-201.136 -208H-164.705M-201.136 -171.526V-135.053M-201.136 -171.526H-164.705M-201.136 -135.053V-98.5789M-201.136 -135.053H-164.705M-201.136 -98.5789V-62.1053M-201.136 -98.5789H-164.705M-201.136 -62.1053V-25.6316M-201.136 -62.1053H-164.705M-201.136 -25.6316V10.8421M-201.136 -25.6316H-164.705M-201.136 10.8421V47.3158M-201.136 10.8421H-164.705M-201.136 47.3158V83.7895M-201.136 47.3158H-164.705M-201.136 83.7895V120.263M-201.136 83.7895H-164.705M-201.136 120.263V156.737M-201.136 120.263H-164.705M-201.136 156.737V193.211M-201.136 156.737H-164.705M-201.136 193.211V229.684M-201.136 193.211H-164.705M-201.136 229.684V266.158M-201.136 229.684H-164.705M-201.136 266.158V302.632M-201.136 266.158H-164.705M-201.136 302.632V339.105M-201.136 302.632H-164.705M-201.136 339.105V375.579M-201.136 339.105H-164.705M-201.136 375.579V412.053M-201.136 375.579H-164.705M-201.136 412.053V448.526M-201.136 412.053H-164.705M-201.136 448.526V485M-201.136 448.526H-164.705M-201.136 485H-164.705M-164.705 -208V-171.526M-164.705 -208H-128.273M-164.705 -171.526V-135.053M-164.705 -171.526H-128.273M-164.705 -135.053V-98.5789M-164.705 -135.053H-128.273M-164.705 -98.5789V-62.1053M-164.705 -98.5789H-128.273M-164.705 -62.1053V-25.6316M-164.705 -62.1053H-128.273M-164.705 -25.6316V10.8421M-164.705 -25.6316H-128.273M-164.705 10.8421V47.3158M-164.705 10.8421H-128.273M-164.705 47.3158V83.7895M-164.705 47.3158H-128.273M-164.705 83.7895V120.263M-164.705 83.7895H-128.273M-164.705 120.263V156.737M-164.705 120.263H-128.273M-164.705 156.737V193.211M-164.705 156.737H-128.273M-164.705 193.211V229.684M-164.705 193.211H-128.273M-164.705 229.684V266.158M-164.705 229.684H-128.273M-164.705 266.158V302.632M-164.705 266.158H-128.273M-164.705 302.632V339.105M-164.705 302.632H-128.273M-164.705 339.105V375.579M-164.705 339.105H-128.273M-164.705 375.579V412.053M-164.705 375.579H-128.273M-164.705 412.053V448.526M-164.705 412.053H-128.273M-164.705 448.526V485M-164.705 448.526H-128.273M-164.705 485H-128.273M-128.273 -208V-171.526M-128.273 -208H-91.8409M-128.273 -171.526V-135.053M-128.273 -171.526H-91.8409M-128.273 -135.053V-98.5789M-128.273 -135.053H-91.8409M-128.273 -98.5789V-62.1053M-128.273 -98.5789H-91.8409M-128.273 -62.1053V-25.6316M-128.273 -62.1053H-91.8409M-128.273 -25.6316V10.8421M-128.273 -25.6316H-91.8409M-128.273 10.8421V47.3158M-128.273 10.8421H-91.8409M-128.273 47.3158V83.7895M-128.273 47.3158H-91.8409M-128.273 83.7895V120.263M-128.273 83.7895H-91.8409M-128.273 120.263V156.737M-128.273 120.263H-91.8409M-128.273 156.737V193.211M-128.273 156.737H-91.8409M-128.273 193.211V229.684M-128.273 193.211H-91.8409M-128.273 229.684V266.158M-128.273 229.684H-91.8409M-128.273 266.158V302.632M-128.273 266.158H-91.8409M-128.273 302.632V339.105M-128.273 302.632H-91.8409M-128.273 339.105V375.579M-128.273 339.105H-91.8409M-128.273 375.579V412.053M-128.273 375.579H-91.8409M-128.273 412.053V448.526M-128.273 412.053H-91.8409M-128.273 448.526V485M-128.273 448.526H-91.8409M-128.273 485H-91.8409M-91.8409 -208V-171.526M-91.8409 -208H-55.4091M-91.8409 -171.526V-135.053M-91.8409 -171.526H-55.4091M-91.8409 -135.053V-98.5789M-91.8409 -135.053H-55.4091M-91.8409 -98.5789V-62.1053M-91.8409 -98.5789H-55.4091M-91.8409 -62.1053V-25.6316M-91.8409 -62.1053H-55.4091M-91.8409 -25.6316V10.8421M-91.8409 -25.6316H-55.4091M-91.8409 10.8421V47.3158M-91.8409 10.8421H-55.4091M-91.8409 47.3158V83.7895M-91.8409 47.3158H-55.4091M-91.8409 83.7895V120.263M-91.8409 83.7895H-55.4091M-91.8409 120.263V156.737M-91.8409 120.263H-55.4091M-91.8409 156.737V193.211M-91.8409 156.737H-55.4091M-91.8409 193.211V229.684M-91.8409 193.211H-55.4091M-91.8409 229.684V266.158M-91.8409 229.684H-55.4091M-91.8409 266.158V302.632M-91.8409 266.158H-55.4091M-91.8409 302.632V339.105M-91.8409 302.632H-55.4091M-91.8409 339.105V375.579M-91.8409 339.105H-55.4091M-91.8409 375.579V412.053M-91.8409 375.579H-55.4091M-91.8409 412.053V448.526M-91.8409 412.053H-55.4091M-91.8409 448.526V485M-91.8409 448.526H-55.4091M-91.8409 485H-55.4091M-55.4091 -208V-171.526M-55.4091 -208H-18.9773M-55.4091 -171.526V-135.053M-55.4091 -171.526H-18.9773M-55.4091 -135.053V-98.5789M-55.4091 -135.053H-18.9773M-55.4091 -98.5789V-62.1053M-55.4091 -98.5789H-18.9773M-55.4091 -62.1053V-25.6316M-55.4091 -62.1053H-18.9773M-55.4091 -25.6316V10.8421M-55.4091 -25.6316H-18.9773M-55.4091 10.8421V47.3158M-55.4091 10.8421H-18.9773M-55.4091 47.3158V83.7895M-55.4091 47.3158H-18.9773M-55.4091 83.7895V120.263M-55.4091 83.7895H-18.9773M-55.4091 120.263V156.737M-55.4091 120.263H-18.9773M-55.4091 156.737V193.211M-55.4091 156.737H-18.9773M-55.4091 193.211V229.684M-55.4091 193.211H-18.9773M-55.4091 229.684V266.158M-55.4091 229.684H-18.9773M-55.4091 266.158V302.632M-55.4091 266.158H-18.9773M-55.4091 302.632V339.105M-55.4091 302.632H-18.9773M-55.4091 339.105V375.579M-55.4091 339.105H-18.9773M-55.4091 375.579V412.053M-55.4091 375.579H-18.9773M-55.4091 412.053V448.526M-55.4091 412.053H-18.9773M-55.4091 448.526V485M-55.4091 448.526H-18.9773M-55.4091 485H-18.9773M-18.9773 -208V-171.526M-18.9773 -208H17.4545M-18.9773 -171.526V-135.053M-18.9773 -171.526H17.4545M-18.9773 -135.053V-98.5789M-18.9773 -135.053H17.4545M-18.9773 -98.5789V-62.1053M-18.9773 -98.5789H17.4545M-18.9773 -62.1053V-25.6316M-18.9773 -62.1053H17.4545M-18.9773 -25.6316V10.8421M-18.9773 -25.6316H17.4545M-18.9773 10.8421V47.3158M-18.9773 10.8421H17.4545M-18.9773 47.3158V83.7895M-18.9773 47.3158H17.4545M-18.9773 83.7895V120.263M-18.9773 83.7895H17.4545M-18.9773 120.263V156.737M-18.9773 120.263H17.4545M-18.9773 156.737V193.211M-18.9773 156.737H17.4545M-18.9773 193.211V229.684M-18.9773 193.211H17.4545M-18.9773 229.684V266.158M-18.9773 229.684H17.4545M-18.9773 266.158V302.632M-18.9773 266.158H17.4545M-18.9773 302.632V339.105M-18.9773 302.632H17.4545M-18.9773 339.105V375.579M-18.9773 339.105H17.4545M-18.9773 375.579V412.053M-18.9773 375.579H17.4545M-18.9773 412.053V448.526M-18.9773 412.053H17.4545M-18.9773 448.526V485M-18.9773 448.526H17.4545M-18.9773 485H17.4545M17.4545 -208V-171.526M17.4545 -208H53.8864M17.4545 -171.526V-135.053M17.4545 -171.526H53.8864M17.4545 -135.053V-98.5789M17.4545 -135.053H53.8864M17.4545 -98.5789V-62.1053M17.4545 -98.5789H53.8864M17.4545 -62.1053V-25.6316M17.4545 -62.1053H53.8864M17.4545 -25.6316V10.8421M17.4545 -25.6316H53.8864M17.4545 10.8421V47.3158M17.4545 10.8421H53.8864M17.4545 47.3158V83.7895M17.4545 47.3158H53.8864M17.4545 83.7895V120.263M17.4545 83.7895H53.8864M17.4545 120.263V156.737M17.4545 120.263H53.8864M17.4545 156.737V193.211M17.4545 156.737H53.8864M17.4545 193.211V229.684M17.4545 193.211H53.8864M17.4545 229.684V266.158M17.4545 229.684H53.8864M17.4545 266.158V302.632M17.4545 266.158H53.8864M17.4545 302.632V339.105M17.4545 302.632H53.8864M17.4545 339.105V375.579M17.4545 339.105H53.8864M17.4545 375.579V412.053M17.4545 375.579H53.8864M17.4545 412.053V448.526M17.4545 412.053H53.8864M17.4545 448.526V485M17.4545 448.526H53.8864M17.4545 485H53.8864M53.8864 -208V-171.526M53.8864 -208H90.3182M53.8864 -171.526V-135.053M53.8864 -171.526H90.3182M53.8864 -135.053V-98.5789M53.8864 -135.053H90.3182M53.8864 -98.5789V-62.1053M53.8864 -98.5789H90.3182M53.8864 -62.1053V-25.6316M53.8864 -62.1053H90.3182M53.8864 -25.6316V10.8421M53.8864 -25.6316H90.3182M53.8864 10.8421V47.3158M53.8864 10.8421H90.3182M53.8864 47.3158V83.7895M53.8864 47.3158H90.3182M53.8864 83.7895V120.263M53.8864 83.7895H90.3182M53.8864 120.263V156.737M53.8864 120.263H90.3182M53.8864 156.737V193.211M53.8864 156.737H90.3182M53.8864 193.211V229.684M53.8864 193.211H90.3182M53.8864 229.684V266.158M53.8864 229.684H90.3182M53.8864 266.158V302.632M53.8864 266.158H90.3182M53.8864 302.632V339.105M53.8864 302.632H90.3182M53.8864 339.105V375.579M53.8864 339.105H90.3182M53.8864 375.579V412.053M53.8864 375.579H90.3182M53.8864 412.053V448.526M53.8864 412.053H90.3182M53.8864 448.526V485M53.8864 448.526H90.3182M53.8864 485H90.3182M90.3182 -208V-171.526M90.3182 -208H126.75M90.3182 -171.526V-135.053M90.3182 -171.526H126.75M90.3182 -135.053V-98.5789M90.3182 -135.053H126.75M90.3182 -98.5789V-62.1053M90.3182 -98.5789H126.75M90.3182 -62.1053V-25.6316M90.3182 -62.1053H126.75M90.3182 -25.6316V10.8421M90.3182 -25.6316H126.75M90.3182 10.8421V47.3158M90.3182 10.8421H126.75M90.3182 47.3158V83.7895M90.3182 47.3158H126.75M90.3182 83.7895V120.263M90.3182 83.7895H126.75M90.3182 120.263V156.737M90.3182 120.263H126.75M90.3182 156.737V193.211M90.3182 156.737H126.75M90.3182 193.211V229.684M90.3182 193.211H126.75M90.3182 229.684V266.158M90.3182 229.684H126.75M90.3182 266.158V302.632M90.3182 266.158H126.75M90.3182 302.632V339.105M90.3182 302.632H126.75M90.3182 339.105V375.579M90.3182 339.105H126.75M90.3182 375.579V412.053M90.3182 375.579H126.75M90.3182 412.053V448.526M90.3182 412.053H126.75M90.3182 448.526V485M90.3182 448.526H126.75M90.3182 485H126.75M126.75 -208V-171.526M126.75 -208H163.182M126.75 -171.526V-135.053M126.75 -171.526H163.182M126.75 -135.053V-98.5789M126.75 -135.053H163.182M126.75 -98.5789V-62.1053M126.75 -98.5789H163.182M126.75 -62.1053V-25.6316M126.75 -62.1053H163.182M126.75 -25.6316V10.8421M126.75 -25.6316H163.182M126.75 10.8421V47.3158M126.75 10.8421H163.182M126.75 47.3158V83.7895M126.75 47.3158H163.182M126.75 83.7895V120.263M126.75 83.7895H163.182M126.75 120.263V156.737M126.75 120.263H163.182M126.75 156.737V193.211M126.75 156.737H163.182M126.75 193.211V229.684M126.75 193.211H163.182M126.75 229.684V266.158M126.75 229.684H163.182M126.75 266.158V302.632M126.75 266.158H163.182M126.75 302.632V339.105M126.75 302.632H163.182M126.75 339.105V375.579M126.75 339.105H163.182M126.75 375.579V412.053M126.75 375.579H163.182M126.75 412.053V448.526M126.75 412.053H163.182M126.75 448.526V485M126.75 448.526H163.182M126.75 485H163.182M163.182 -208V-171.526M163.182 -208H199.614M163.182 -171.526V-135.053M163.182 -171.526H199.614M163.182 -135.053V-98.5789M163.182 -135.053H199.614M163.182 -98.5789V-62.1053M163.182 -98.5789H199.614M163.182 -62.1053V-25.6316M163.182 -62.1053H199.614M163.182 -25.6316V10.8421M163.182 -25.6316H199.614M163.182 10.8421V47.3158M163.182 10.8421H199.614M163.182 47.3158V83.7895M163.182 47.3158H199.614M163.182 83.7895V120.263M163.182 83.7895H199.614M163.182 120.263V156.737M163.182 120.263H199.614M163.182 156.737V193.211M163.182 156.737H199.614M163.182 193.211V229.684M163.182 193.211H199.614M163.182 229.684V266.158M163.182 229.684H199.614M163.182 266.158V302.632M163.182 266.158H199.614M163.182 302.632V339.105M163.182 302.632H199.614M163.182 339.105V375.579M163.182 339.105H199.614M163.182 375.579V412.053M163.182 375.579H199.614M163.182 412.053V448.526M163.182 412.053H199.614M163.182 448.526V485M163.182 448.526H199.614M163.182 485H199.614M199.614 -208V-171.526M199.614 -208H236.045M199.614 -171.526V-135.053M199.614 -171.526H236.045M199.614 -135.053V-98.5789M199.614 -135.053H236.045M199.614 -98.5789V-62.1053M199.614 -98.5789H236.045M199.614 -62.1053V-25.6316M199.614 -62.1053H236.045M199.614 -25.6316V10.8421M199.614 -25.6316H236.045M199.614 10.8421V47.3158M199.614 10.8421H236.045M199.614 47.3158V83.7895M199.614 47.3158H236.045M199.614 83.7895V120.263M199.614 83.7895H236.045M199.614 120.263V156.737M199.614 120.263H236.045M199.614 156.737V193.211M199.614 156.737H236.045M199.614 193.211V229.684M199.614 193.211H236.045M199.614 229.684V266.158M199.614 229.684H236.045M199.614 266.158V302.632M199.614 266.158H236.045M199.614 302.632V339.105M199.614 302.632H236.045M199.614 339.105V375.579M199.614 339.105H236.045M199.614 375.579V412.053M199.614 375.579H236.045M199.614 412.053V448.526M199.614 412.053H236.045M199.614 448.526V485M199.614 448.526H236.045M199.614 485H236.045M236.045 -208V-171.526M236.045 -208H272.477M236.045 -171.526V-135.053M236.045 -171.526H272.477M236.045 -135.053V-98.5789M236.045 -135.053H272.477M236.045 -98.5789V-62.1053M236.045 -98.5789H272.477M236.045 -62.1053V-25.6316M236.045 -62.1053H272.477M236.045 -25.6316V10.8421M236.045 -25.6316H272.477M236.045 10.8421V47.3158M236.045 10.8421H272.477M236.045 47.3158V83.7895M236.045 47.3158H272.477M236.045 83.7895V120.263M236.045 83.7895H272.477M236.045 120.263V156.737M236.045 120.263H272.477M236.045 156.737V193.211M236.045 156.737H272.477M236.045 193.211V229.684M236.045 193.211H272.477M236.045 229.684V266.158M236.045 229.684H272.477M236.045 266.158V302.632M236.045 266.158H272.477M236.045 302.632V339.105M236.045 302.632H272.477M236.045 339.105V375.579M236.045 339.105H272.477M236.045 375.579V412.053M236.045 375.579H272.477M236.045 412.053V448.526M236.045 412.053H272.477M236.045 448.526V485M236.045 448.526H272.477M236.045 485H272.477M272.477 -208V-171.526M272.477 -208H308.909M272.477 -171.526V-135.053M272.477 -171.526H308.909M272.477 -135.053V-98.5789M272.477 -135.053H308.909M272.477 -98.5789V-62.1053M272.477 -98.5789H308.909M272.477 -62.1053V-25.6316M272.477 -62.1053H308.909M272.477 -25.6316V10.8421M272.477 -25.6316H308.909M272.477 10.8421V47.3158M272.477 10.8421H308.909M272.477 47.3158V83.7895M272.477 47.3158H308.909M272.477 83.7895V120.263M272.477 83.7895H308.909M272.477 120.263V156.737M272.477 120.263H308.909M272.477 156.737V193.211M272.477 156.737H308.909M272.477 193.211V229.684M272.477 193.211H308.909M272.477 229.684V266.158M272.477 229.684H308.909M272.477 266.158V302.632M272.477 266.158H308.909M272.477 302.632V339.105M272.477 302.632H308.909M272.477 339.105V375.579M272.477 339.105H308.909M272.477 375.579V412.053M272.477 375.579H308.909M272.477 412.053V448.526M272.477 412.053H308.909M272.477 448.526V485M272.477 448.526H308.909M272.477 485H308.909M308.909 -208V-171.526M308.909 -208H345.341M308.909 -171.526V-135.053M308.909 -171.526H345.341M308.909 -135.053V-98.5789M308.909 -135.053H345.341M308.909 -98.5789V-62.1053M308.909 -98.5789H345.341M308.909 -62.1053V-25.6316M308.909 -62.1053H345.341M308.909 -25.6316V10.8421M308.909 -25.6316H345.341M308.909 10.8421V47.3158M308.909 10.8421H345.341M308.909 47.3158V83.7895M308.909 47.3158H345.341M308.909 83.7895V120.263M308.909 83.7895H345.341M308.909 120.263V156.737M308.909 120.263H345.341M308.909 156.737V193.211M308.909 156.737H345.341M308.909 193.211V229.684M308.909 193.211H345.341M308.909 229.684V266.158M308.909 229.684H345.341M308.909 266.158V302.632M308.909 266.158H345.341M308.909 302.632V339.105M308.909 302.632H345.341M308.909 339.105V375.579M308.909 339.105H345.341M308.909 375.579V412.053M308.909 375.579H345.341M308.909 412.053V448.526M308.909 412.053H345.341M308.909 448.526V485M308.909 448.526H345.341M308.909 485H345.341M345.341 -208V-171.526M345.341 -208H381.773M345.341 -171.526V-135.053M345.341 -171.526H381.773M345.341 -135.053V-98.5789M345.341 -135.053H381.773M345.341 -98.5789V-62.1053M345.341 -98.5789H381.773M345.341 -62.1053V-25.6316M345.341 -62.1053H381.773M345.341 -25.6316V10.8421M345.341 -25.6316H381.773M345.341 10.8421V47.3158M345.341 10.8421H381.773M345.341 47.3158V83.7895M345.341 47.3158H381.773M345.341 83.7895V120.263M345.341 83.7895H381.773M345.341 120.263V156.737M345.341 120.263H381.773M345.341 156.737V193.211M345.341 156.737H381.773M345.341 193.211V229.684M345.341 193.211H381.773M345.341 229.684V266.158M345.341 229.684H381.773M345.341 266.158V302.632M345.341 266.158H381.773M345.341 302.632V339.105M345.341 302.632H381.773M345.341 339.105V375.579M345.341 339.105H381.773M345.341 375.579V412.053M345.341 375.579H381.773M345.341 412.053V448.526M345.341 412.053H381.773M345.341 448.526V485M345.341 448.526H381.773M345.341 485H381.773M381.773 -208V-171.526M381.773 -208H418.205M381.773 -171.526V-135.053M381.773 -171.526H418.205M381.773 -135.053V-98.5789M381.773 -135.053H418.205M381.773 -98.5789V-62.1053M381.773 -98.5789H418.205M381.773 -62.1053V-25.6316M381.773 -62.1053H418.205M381.773 -25.6316V10.8421M381.773 -25.6316H418.205M381.773 10.8421V47.3158M381.773 10.8421H418.205M381.773 47.3158V83.7895M381.773 47.3158H418.205M381.773 83.7895V120.263M381.773 83.7895H418.205M381.773 120.263V156.737M381.773 120.263H418.205M381.773 156.737V193.211M381.773 156.737H418.205M381.773 193.211V229.684M381.773 193.211H418.205M381.773 229.684V266.158M381.773 229.684H418.205M381.773 266.158V302.632M381.773 266.158H418.205M381.773 302.632V339.105M381.773 302.632H418.205M381.773 339.105V375.579M381.773 339.105H418.205M381.773 375.579V412.053M381.773 375.579H418.205M381.773 412.053V448.526M381.773 412.053H418.205M381.773 448.526V485M381.773 448.526H418.205M381.773 485H418.205M418.205 -208V-171.526M418.205 -208H454.636M418.205 -171.526V-135.053M418.205 -171.526H454.636M418.205 -135.053V-98.5789M418.205 -135.053H454.636M418.205 -98.5789V-62.1053M418.205 -98.5789H454.636M418.205 -62.1053V-25.6316M418.205 -62.1053H454.636M418.205 -25.6316V10.8421M418.205 -25.6316H454.636M418.205 10.8421V47.3158M418.205 10.8421H454.636M418.205 47.3158V83.7895M418.205 47.3158H454.636M418.205 83.7895V120.263M418.205 83.7895H454.636M418.205 120.263V156.737M418.205 120.263H454.636M418.205 156.737V193.211M418.205 156.737H454.636M418.205 193.211V229.684M418.205 193.211H454.636M418.205 229.684V266.158M418.205 229.684H454.636M418.205 266.158V302.632M418.205 266.158H454.636M418.205 302.632V339.105M418.205 302.632H454.636M418.205 339.105V375.579M418.205 339.105H454.636M418.205 375.579V412.053M418.205 375.579H454.636M418.205 412.053V448.526M418.205 412.053H454.636M418.205 448.526V485M418.205 448.526H454.636M418.205 485H454.636M454.636 -208V-171.526M454.636 -208H491.068M454.636 -171.526V-135.053M454.636 -171.526H491.068M454.636 -135.053V-98.5789M454.636 -135.053H491.068M454.636 -98.5789V-62.1053M454.636 -98.5789H491.068M454.636 -62.1053V-25.6316M454.636 -62.1053H491.068M454.636 -25.6316V10.8421M454.636 -25.6316H491.068M454.636 10.8421V47.3158M454.636 10.8421H491.068M454.636 47.3158V83.7895M454.636 47.3158H491.068M454.636 83.7895V120.263M454.636 83.7895H491.068M454.636 120.263V156.737M454.636 120.263H491.068M454.636 156.737V193.211M454.636 156.737H491.068M454.636 193.211V229.684M454.636 193.211H491.068M454.636 229.684V266.158M454.636 229.684H491.068M454.636 266.158V302.632M454.636 266.158H491.068M454.636 302.632V339.105M454.636 302.632H491.068M454.636 339.105V375.579M454.636 339.105H491.068M454.636 375.579V412.053M454.636 375.579H491.068M454.636 412.053V448.526M454.636 412.053H491.068M454.636 448.526V485M454.636 448.526H491.068M454.636 485H491.068M491.068 -208V-171.526M491.068 -208H527.5M491.068 -171.526V-135.053M491.068 -171.526H527.5M491.068 -135.053V-98.5789M491.068 -135.053H527.5M491.068 -98.5789V-62.1053M491.068 -98.5789H527.5M491.068 -62.1053V-25.6316M491.068 -62.1053H527.5M491.068 -25.6316V10.8421M491.068 -25.6316H527.5M491.068 10.8421V47.3158M491.068 10.8421H527.5M491.068 47.3158V83.7895M491.068 47.3158H527.5M491.068 83.7895V120.263M491.068 83.7895H527.5M491.068 120.263V156.737M491.068 120.263H527.5M491.068 156.737V193.211M491.068 156.737H527.5M491.068 193.211V229.684M491.068 193.211H527.5M491.068 229.684V266.158M491.068 229.684H527.5M491.068 266.158V302.632M491.068 266.158H527.5M491.068 302.632V339.105M491.068 302.632H527.5M491.068 339.105V375.579M491.068 339.105H527.5M491.068 375.579V412.053M491.068 375.579H527.5M491.068 412.053V448.526M491.068 412.053H527.5M491.068 448.526V485M491.068 448.526H527.5M491.068 485H527.5M527.5 -208V-171.526M527.5 -208H563.932M527.5 -171.526V-135.053M527.5 -171.526H563.932M527.5 -135.053V-98.5789M527.5 -135.053H563.932M527.5 -98.5789V-62.1053M527.5 -98.5789H563.932M527.5 -62.1053V-25.6316M527.5 -62.1053H563.932M527.5 -25.6316V10.8421M527.5 -25.6316H563.932M527.5 10.8421V47.3158M527.5 10.8421H563.932M527.5 47.3158V83.7895M527.5 47.3158H563.932M527.5 83.7895V120.263M527.5 83.7895H563.932M527.5 120.263V156.737M527.5 120.263H563.932M527.5 156.737V193.211M527.5 156.737H563.932M527.5 193.211V229.684M527.5 193.211H563.932M527.5 229.684V266.158M527.5 229.684H563.932M527.5 266.158V302.632M527.5 266.158H563.932M527.5 302.632V339.105M527.5 302.632H563.932M527.5 339.105V375.579M527.5 339.105H563.932M527.5 375.579V412.053M527.5 375.579H563.932M527.5 412.053V448.526M527.5 412.053H563.932M527.5 448.526V485M527.5 448.526H563.932M527.5 485H563.932M563.932 -208V-171.526M563.932 -208H600.364M563.932 -171.526V-135.053M563.932 -171.526H600.364M563.932 -135.053V-98.5789M563.932 -135.053H600.364M563.932 -98.5789V-62.1053M563.932 -98.5789H600.364M563.932 -62.1053V-25.6316M563.932 -62.1053H600.364M563.932 -25.6316V10.8421M563.932 -25.6316H600.364M563.932 10.8421V47.3158M563.932 10.8421H600.364M563.932 47.3158V83.7895M563.932 47.3158H600.364M563.932 83.7895V120.263M563.932 83.7895H600.364M563.932 120.263V156.737M563.932 120.263H600.364M563.932 156.737V193.211M563.932 156.737H600.364M563.932 193.211V229.684M563.932 193.211H600.364M563.932 229.684V266.158M563.932 229.684H600.364M563.932 266.158V302.632M563.932 266.158H600.364M563.932 302.632V339.105M563.932 302.632H600.364M563.932 339.105V375.579M563.932 339.105H600.364M563.932 375.579V412.053M563.932 375.579H600.364M563.932 412.053V448.526M563.932 412.053H600.364M563.932 448.526V485M563.932 448.526H600.364M563.932 485H600.364M600.364 -208V-171.526M600.364 -208H636.795M600.364 -171.526V-135.053M600.364 -171.526H636.795M600.364 -135.053V-98.5789M600.364 -135.053H636.795M600.364 -98.5789V-62.1053M600.364 -98.5789H636.795M600.364 -62.1053V-25.6316M600.364 -62.1053H636.795M600.364 -25.6316V10.8421M600.364 -25.6316H636.795M600.364 10.8421V47.3158M600.364 10.8421H636.795M600.364 47.3158V83.7895M600.364 47.3158H636.795M600.364 83.7895V120.263M600.364 83.7895H636.795M600.364 120.263V156.737M600.364 120.263H636.795M600.364 156.737V193.211M600.364 156.737H636.795M600.364 193.211V229.684M600.364 193.211H636.795M600.364 229.684V266.158M600.364 229.684H636.795M600.364 266.158V302.632M600.364 266.158H636.795M600.364 302.632V339.105M600.364 302.632H636.795M600.364 339.105V375.579M600.364 339.105H636.795M600.364 375.579V412.053M600.364 375.579H636.795M600.364 412.053V448.526M600.364 412.053H636.795M600.364 448.526V485M600.364 448.526H636.795M600.364 485H636.795M636.795 -208V-171.526M636.795 -208H673.227M636.795 -171.526V-135.053M636.795 -171.526H673.227M636.795 -135.053V-98.5789M636.795 -135.053H673.227M636.795 -98.5789V-62.1053M636.795 -98.5789H673.227M636.795 -62.1053V-25.6316M636.795 -62.1053H673.227M636.795 -25.6316V10.8421M636.795 -25.6316H673.227M636.795 10.8421V47.3158M636.795 10.8421H673.227M636.795 47.3158V83.7895M636.795 47.3158H673.227M636.795 83.7895V120.263M636.795 83.7895H673.227M636.795 120.263V156.737M636.795 120.263H673.227M636.795 156.737V193.211M636.795 156.737H673.227M636.795 193.211V229.684M636.795 193.211H673.227M636.795 229.684V266.158M636.795 229.684H673.227M636.795 266.158V302.632M636.795 266.158H673.227M636.795 302.632V339.105M636.795 302.632H673.227M636.795 339.105V375.579M636.795 339.105H673.227M636.795 375.579V412.053M636.795 375.579H673.227M636.795 412.053V448.526M636.795 412.053H673.227M636.795 448.526V485M636.795 448.526H673.227M636.795 485H673.227M673.227 -208V-171.526M673.227 -208H709.659M673.227 -171.526V-135.053M673.227 -171.526H709.659M673.227 -135.053V-98.5789M673.227 -135.053H709.659M673.227 -98.5789V-62.1053M673.227 -98.5789H709.659M673.227 -62.1053V-25.6316M673.227 -62.1053H709.659M673.227 -25.6316V10.8421M673.227 -25.6316H709.659M673.227 10.8421V47.3158M673.227 10.8421H709.659M673.227 47.3158V83.7895M673.227 47.3158H709.659M673.227 83.7895V120.263M673.227 83.7895H709.659M673.227 120.263V156.737M673.227 120.263H709.659M673.227 156.737V193.211M673.227 156.737H709.659M673.227 193.211V229.684M673.227 193.211H709.659M673.227 229.684V266.158M673.227 229.684H709.659M673.227 266.158V302.632M673.227 266.158H709.659M673.227 302.632V339.105M673.227 302.632H709.659M673.227 339.105V375.579M673.227 339.105H709.659M673.227 375.579V412.053M673.227 375.579H709.659M673.227 412.053V448.526M673.227 412.053H709.659M673.227 448.526V485M673.227 448.526H709.659M673.227 485H709.659M709.659 -208V-171.526M709.659 -208H746.091M709.659 -171.526V-135.053M709.659 -171.526H746.091M709.659 -135.053V-98.5789M709.659 -135.053H746.091M709.659 -98.5789V-62.1053M709.659 -98.5789H746.091M709.659 -62.1053V-25.6316M709.659 -62.1053H746.091M709.659 -25.6316V10.8421M709.659 -25.6316H746.091M709.659 10.8421V47.3158M709.659 10.8421H746.091M709.659 47.3158V83.7895M709.659 47.3158H746.091M709.659 83.7895V120.263M709.659 83.7895H746.091M709.659 120.263V156.737M709.659 120.263H746.091M709.659 156.737V193.211M709.659 156.737H746.091M709.659 193.211V229.684M709.659 193.211H746.091M709.659 229.684V266.158M709.659 229.684H746.091M709.659 266.158V302.632M709.659 266.158H746.091M709.659 302.632V339.105M709.659 302.632H746.091M709.659 339.105V375.579M709.659 339.105H746.091M709.659 375.579V412.053M709.659 375.579H746.091M709.659 412.053V448.526M709.659 412.053H746.091M709.659 448.526V485M709.659 448.526H746.091M709.659 485H746.091M746.091 -208V-171.526M746.091 -208H782.523M746.091 -171.526V-135.053M746.091 -171.526H782.523M746.091 -135.053V-98.5789M746.091 -135.053H782.523M746.091 -98.5789V-62.1053M746.091 -98.5789H782.523M746.091 -62.1053V-25.6316M746.091 -62.1053H782.523M746.091 -25.6316V10.8421M746.091 -25.6316H782.523M746.091 10.8421V47.3158M746.091 10.8421H782.523M746.091 47.3158V83.7895M746.091 47.3158H782.523M746.091 83.7895V120.263M746.091 83.7895H782.523M746.091 120.263V156.737M746.091 120.263H782.523M746.091 156.737V193.211M746.091 156.737H782.523M746.091 193.211V229.684M746.091 193.211H782.523M746.091 229.684V266.158M746.091 229.684H782.523M746.091 266.158V302.632M746.091 266.158H782.523M746.091 302.632V339.105M746.091 302.632H782.523M746.091 339.105V375.579M746.091 339.105H782.523M746.091 375.579V412.053M746.091 375.579H782.523M746.091 412.053V448.526M746.091 412.053H782.523M746.091 448.526V485M746.091 448.526H782.523M746.091 485H782.523M782.523 -208V-171.526M782.523 -208H818.955M782.523 -171.526V-135.053M782.523 -171.526H818.955M782.523 -135.053V-98.5789M782.523 -135.053H818.955M782.523 -98.5789V-62.1053M782.523 -98.5789H818.955M782.523 -62.1053V-25.6316M782.523 -62.1053H818.955M782.523 -25.6316V10.8421M782.523 -25.6316H818.955M782.523 10.8421V47.3158M782.523 10.8421H818.955M782.523 47.3158V83.7895M782.523 47.3158H818.955M782.523 83.7895V120.263M782.523 83.7895H818.955M782.523 120.263V156.737M782.523 120.263H818.955M782.523 156.737V193.211M782.523 156.737H818.955M782.523 193.211V229.684M782.523 193.211H818.955M782.523 229.684V266.158M782.523 229.684H818.955M782.523 266.158V302.632M782.523 266.158H818.955M782.523 302.632V339.105M782.523 302.632H818.955M782.523 339.105V375.579M782.523 339.105H818.955M782.523 375.579V412.053M782.523 375.579H818.955M782.523 412.053V448.526M782.523 412.053H818.955M782.523 448.526V485M782.523 448.526H818.955M782.523 485H818.955M818.955 -208V-171.526M818.955 -208H855.386M818.955 -171.526V-135.053M818.955 -171.526H855.386M818.955 -135.053V-98.5789M818.955 -135.053H855.386M818.955 -98.5789V-62.1053M818.955 -98.5789H855.386M818.955 -62.1053V-25.6316M818.955 -62.1053H855.386M818.955 -25.6316V10.8421M818.955 -25.6316H855.386M818.955 10.8421V47.3158M818.955 10.8421H855.386M818.955 47.3158V83.7895M818.955 47.3158H855.386M818.955 83.7895V120.263M818.955 83.7895H855.386M818.955 120.263V156.737M818.955 120.263H855.386M818.955 156.737V193.211M818.955 156.737H855.386M818.955 193.211V229.684M818.955 193.211H855.386M818.955 229.684V266.158M818.955 229.684H855.386M818.955 266.158V302.632M818.955 266.158H855.386M818.955 302.632V339.105M818.955 302.632H855.386M818.955 339.105V375.579M818.955 339.105H855.386M818.955 375.579V412.053M818.955 375.579H855.386M818.955 412.053V448.526M818.955 412.053H855.386M818.955 448.526V485M818.955 448.526H855.386M818.955 485H855.386M855.386 -208V-171.526M855.386 -208H891.818M855.386 -171.526V-135.053M855.386 -171.526H891.818M855.386 -135.053V-98.5789M855.386 -135.053H891.818M855.386 -98.5789V-62.1053M855.386 -98.5789H891.818M855.386 -62.1053V-25.6316M855.386 -62.1053H891.818M855.386 -25.6316V10.8421M855.386 -25.6316H891.818M855.386 10.8421V47.3158M855.386 10.8421H891.818M855.386 47.3158V83.7895M855.386 47.3158H891.818M855.386 83.7895V120.263M855.386 83.7895H891.818M855.386 120.263V156.737M855.386 120.263H891.818M855.386 156.737V193.211M855.386 156.737H891.818M855.386 193.211V229.684M855.386 193.211H891.818M855.386 229.684V266.158M855.386 229.684H891.818M855.386 266.158V302.632M855.386 266.158H891.818M855.386 302.632V339.105M855.386 302.632H891.818M855.386 339.105V375.579M855.386 339.105H891.818M855.386 375.579V412.053M855.386 375.579H891.818M855.386 412.053V448.526M855.386 412.053H891.818M855.386 448.526V485M855.386 448.526H891.818M855.386 485H891.818M891.818 -208V-171.526M891.818 -208H928.25M891.818 -171.526V-135.053M891.818 -171.526H928.25M891.818 -135.053V-98.5789M891.818 -135.053H928.25M891.818 -98.5789V-62.1053M891.818 -98.5789H928.25M891.818 -62.1053V-25.6316M891.818 -62.1053H928.25M891.818 -25.6316V10.8421M891.818 -25.6316H928.25M891.818 10.8421V47.3158M891.818 10.8421H928.25M891.818 47.3158V83.7895M891.818 47.3158H928.25M891.818 83.7895V120.263M891.818 83.7895H928.25M891.818 120.263V156.737M891.818 120.263H928.25M891.818 156.737V193.211M891.818 156.737H928.25M891.818 193.211V229.684M891.818 193.211H928.25M891.818 229.684V266.158M891.818 229.684H928.25M891.818 266.158V302.632M891.818 266.158H928.25M891.818 302.632V339.105M891.818 302.632H928.25M891.818 339.105V375.579M891.818 339.105H928.25M891.818 375.579V412.053M891.818 375.579H928.25M891.818 412.053V448.526M891.818 412.053H928.25M891.818 448.526V485M891.818 448.526H928.25M891.818 485H928.25M928.25 -208V-171.526M928.25 -208H964.682M928.25 -171.526V-135.053M928.25 -171.526H964.682M928.25 -135.053V-98.5789M928.25 -135.053H964.682M928.25 -98.5789V-62.1053M928.25 -98.5789H964.682M928.25 -62.1053V-25.6316M928.25 -62.1053H964.682M928.25 -25.6316V10.8421M928.25 -25.6316H964.682M928.25 10.8421V47.3158M928.25 10.8421H964.682M928.25 47.3158V83.7895M928.25 47.3158H964.682M928.25 83.7895V120.263M928.25 83.7895H964.682M928.25 120.263V156.737M928.25 120.263H964.682M928.25 156.737V193.211M928.25 156.737H964.682M928.25 193.211V229.684M928.25 193.211H964.682M928.25 229.684V266.158M928.25 229.684H964.682M928.25 266.158V302.632M928.25 266.158H964.682M928.25 302.632V339.105M928.25 302.632H964.682M928.25 339.105V375.579M928.25 339.105H964.682M928.25 375.579V412.053M928.25 375.579H964.682M928.25 412.053V448.526M928.25 412.053H964.682M928.25 448.526V485M928.25 448.526H964.682M928.25 485H964.682M964.682 -208V-171.526M964.682 -208H1001.11M964.682 -171.526V-135.053M964.682 -171.526H1001.11M964.682 -135.053V-98.5789M964.682 -135.053H1001.11M964.682 -98.5789V-62.1053M964.682 -98.5789H1001.11M964.682 -62.1053V-25.6316M964.682 -62.1053H1001.11M964.682 -25.6316V10.8421M964.682 -25.6316H1001.11M964.682 10.8421V47.3158M964.682 10.8421H1001.11M964.682 47.3158V83.7895M964.682 47.3158H1001.11M964.682 83.7895V120.263M964.682 83.7895H1001.11M964.682 120.263V156.737M964.682 120.263H1001.11M964.682 156.737V193.211M964.682 156.737H1001.11M964.682 193.211V229.684M964.682 193.211H1001.11M964.682 229.684V266.158M964.682 229.684H1001.11M964.682 266.158V302.632M964.682 266.158H1001.11M964.682 302.632V339.105M964.682 302.632H1001.11M964.682 339.105V375.579M964.682 339.105H1001.11M964.682 375.579V412.053M964.682 375.579H1001.11M964.682 412.053V448.526M964.682 412.053H1001.11M964.682 448.526V485M964.682 448.526H1001.11M964.682 485H1001.11M1001.11 -208V-171.526M1001.11 -208H1037.55M1001.11 -171.526V-135.053M1001.11 -171.526H1037.55M1001.11 -135.053V-98.5789M1001.11 -135.053H1037.55M1001.11 -98.5789V-62.1053M1001.11 -98.5789H1037.55M1001.11 -62.1053V-25.6316M1001.11 -62.1053H1037.55M1001.11 -25.6316V10.8421M1001.11 -25.6316H1037.55M1001.11 10.8421V47.3158M1001.11 10.8421H1037.55M1001.11 47.3158V83.7895M1001.11 47.3158H1037.55M1001.11 83.7895V120.263M1001.11 83.7895H1037.55M1001.11 120.263V156.737M1001.11 120.263H1037.55M1001.11 156.737V193.211M1001.11 156.737H1037.55M1001.11 193.211V229.684M1001.11 193.211H1037.55M1001.11 229.684V266.158M1001.11 229.684H1037.55M1001.11 266.158V302.632M1001.11 266.158H1037.55M1001.11 302.632V339.105M1001.11 302.632H1037.55M1001.11 339.105V375.579M1001.11 339.105H1037.55M1001.11 375.579V412.053M1001.11 375.579H1037.55M1001.11 412.053V448.526M1001.11 412.053H1037.55M1001.11 448.526V485M1001.11 448.526H1037.55M1001.11 485H1037.55M1037.55 -208V-171.526M1037.55 -208H1073.98M1037.55 -171.526V-135.053M1037.55 -171.526H1073.98M1037.55 -135.053V-98.5789M1037.55 -135.053H1073.98M1037.55 -98.5789V-62.1053M1037.55 -98.5789H1073.98M1037.55 -62.1053V-25.6316M1037.55 -62.1053H1073.98M1037.55 -25.6316V10.8421M1037.55 -25.6316H1073.98M1037.55 10.8421V47.3158M1037.55 10.8421H1073.98M1037.55 47.3158V83.7895M1037.55 47.3158H1073.98M1037.55 83.7895V120.263M1037.55 83.7895H1073.98M1037.55 120.263V156.737M1037.55 120.263H1073.98M1037.55 156.737V193.211M1037.55 156.737H1073.98M1037.55 193.211V229.684M1037.55 193.211H1073.98M1037.55 229.684V266.158M1037.55 229.684H1073.98M1037.55 266.158V302.632M1037.55 266.158H1073.98M1037.55 302.632V339.105M1037.55 302.632H1073.98M1037.55 339.105V375.579M1037.55 339.105H1073.98M1037.55 375.579V412.053M1037.55 375.579H1073.98M1037.55 412.053V448.526M1037.55 412.053H1073.98M1037.55 448.526V485M1037.55 448.526H1073.98M1037.55 485H1073.98M1073.98 -208V-171.526M1073.98 -208H1110.41M1073.98 -171.526V-135.053M1073.98 -171.526H1110.41M1073.98 -135.053V-98.5789M1073.98 -135.053H1110.41M1073.98 -98.5789V-62.1053M1073.98 -98.5789H1110.41M1073.98 -62.1053V-25.6316M1073.98 -62.1053H1110.41M1073.98 -25.6316V10.8421M1073.98 -25.6316H1110.41M1073.98 10.8421V47.3158M1073.98 10.8421H1110.41M1073.98 47.3158V83.7895M1073.98 47.3158H1110.41M1073.98 83.7895V120.263M1073.98 83.7895H1110.41M1073.98 120.263V156.737M1073.98 120.263H1110.41M1073.98 156.737V193.211M1073.98 156.737H1110.41M1073.98 193.211V229.684M1073.98 193.211H1110.41M1073.98 229.684V266.158M1073.98 229.684H1110.41M1073.98 266.158V302.632M1073.98 266.158H1110.41M1073.98 302.632V339.105M1073.98 302.632H1110.41M1073.98 339.105V375.579M1073.98 339.105H1110.41M1073.98 375.579V412.053M1073.98 375.579H1110.41M1073.98 412.053V448.526M1073.98 412.053H1110.41M1073.98 448.526V485M1073.98 448.526H1110.41M1073.98 485H1110.41M1110.41 -208V-171.526M1110.41 -208H1146.84M1110.41 -171.526V-135.053M1110.41 -171.526H1146.84M1110.41 -135.053V-98.5789M1110.41 -135.053H1146.84M1110.41 -98.5789V-62.1053M1110.41 -98.5789H1146.84M1110.41 -62.1053V-25.6316M1110.41 -62.1053H1146.84M1110.41 -25.6316V10.8421M1110.41 -25.6316H1146.84M1110.41 10.8421V47.3158M1110.41 10.8421H1146.84M1110.41 47.3158V83.7895M1110.41 47.3158H1146.84M1110.41 83.7895V120.263M1110.41 83.7895H1146.84M1110.41 120.263V156.737M1110.41 120.263H1146.84M1110.41 156.737V193.211M1110.41 156.737H1146.84M1110.41 193.211V229.684M1110.41 193.211H1146.84M1110.41 229.684V266.158M1110.41 229.684H1146.84M1110.41 266.158V302.632M1110.41 266.158H1146.84M1110.41 302.632V339.105M1110.41 302.632H1146.84M1110.41 339.105V375.579M1110.41 339.105H1146.84M1110.41 375.579V412.053M1110.41 375.579H1146.84M1110.41 412.053V448.526M1110.41 412.053H1146.84M1110.41 448.526V485M1110.41 448.526H1146.84M1110.41 485H1146.84M1146.84 -208V-171.526M1146.84 -208H1183.27M1146.84 -171.526V-135.053M1146.84 -171.526H1183.27M1146.84 -135.053V-98.5789M1146.84 -135.053H1183.27M1146.84 -98.5789V-62.1053M1146.84 -98.5789H1183.27M1146.84 -62.1053V-25.6316M1146.84 -62.1053H1183.27M1146.84 -25.6316V10.8421M1146.84 -25.6316H1183.27M1146.84 10.8421V47.3158M1146.84 10.8421H1183.27M1146.84 47.3158V83.7895M1146.84 47.3158H1183.27M1146.84 83.7895V120.263M1146.84 83.7895H1183.27M1146.84 120.263V156.737M1146.84 120.263H1183.27M1146.84 156.737V193.211M1146.84 156.737H1183.27M1146.84 193.211V229.684M1146.84 193.211H1183.27M1146.84 229.684V266.158M1146.84 229.684H1183.27M1146.84 266.158V302.632M1146.84 266.158H1183.27M1146.84 302.632V339.105M1146.84 302.632H1183.27M1146.84 339.105V375.579M1146.84 339.105H1183.27M1146.84 375.579V412.053M1146.84 375.579H1183.27M1146.84 412.053V448.526M1146.84 412.053H1183.27M1146.84 448.526V485M1146.84 448.526H1183.27M1146.84 485H1183.27M1183.27 -208V-171.526M1183.27 -208H1219.7M1183.27 -171.526V-135.053M1183.27 -171.526H1219.7M1183.27 -135.053V-98.5789M1183.27 -135.053H1219.7M1183.27 -98.5789V-62.1053M1183.27 -98.5789H1219.7M1183.27 -62.1053V-25.6316M1183.27 -62.1053H1219.7M1183.27 -25.6316V10.8421M1183.27 -25.6316H1219.7M1183.27 10.8421V47.3158M1183.27 10.8421H1219.7M1183.27 47.3158V83.7895M1183.27 47.3158H1219.7M1183.27 83.7895V120.263M1183.27 83.7895H1219.7M1183.27 120.263V156.737M1183.27 120.263H1219.7M1183.27 156.737V193.211M1183.27 156.737H1219.7M1183.27 193.211V229.684M1183.27 193.211H1219.7M1183.27 229.684V266.158M1183.27 229.684H1219.7M1183.27 266.158V302.632M1183.27 266.158H1219.7M1183.27 302.632V339.105M1183.27 302.632H1219.7M1183.27 339.105V375.579M1183.27 339.105H1219.7M1183.27 375.579V412.053M1183.27 375.579H1219.7M1183.27 412.053V448.526M1183.27 412.053H1219.7M1183.27 448.526V485M1183.27 448.526H1219.7M1183.27 485H1219.7M1219.7 -208V-171.526M1219.7 -208H1256.14M1219.7 -171.526V-135.053M1219.7 -171.526H1256.14M1219.7 -135.053V-98.5789M1219.7 -135.053H1256.14M1219.7 -98.5789V-62.1053M1219.7 -98.5789H1256.14M1219.7 -62.1053V-25.6316M1219.7 -62.1053H1256.14M1219.7 -25.6316V10.8421M1219.7 -25.6316H1256.14M1219.7 10.8421V47.3158M1219.7 10.8421H1256.14M1219.7 47.3158V83.7895M1219.7 47.3158H1256.14M1219.7 83.7895V120.263M1219.7 83.7895H1256.14M1219.7 120.263V156.737M1219.7 120.263H1256.14M1219.7 156.737V193.211M1219.7 156.737H1256.14M1219.7 193.211V229.684M1219.7 193.211H1256.14M1219.7 229.684V266.158M1219.7 229.684H1256.14M1219.7 266.158V302.632M1219.7 266.158H1256.14M1219.7 302.632V339.105M1219.7 302.632H1256.14M1219.7 339.105V375.579M1219.7 339.105H1256.14M1219.7 375.579V412.053M1219.7 375.579H1256.14M1219.7 412.053V448.526M1219.7 412.053H1256.14M1219.7 448.526V485M1219.7 448.526H1256.14M1219.7 485H1256.14M1256.14 -208V-171.526M1256.14 -208H1292.57M1256.14 -171.526V-135.053M1256.14 -171.526H1292.57M1256.14 -135.053V-98.5789M1256.14 -135.053H1292.57M1256.14 -98.5789V-62.1053M1256.14 -98.5789H1292.57M1256.14 -62.1053V-25.6316M1256.14 -62.1053H1292.57M1256.14 -25.6316V10.8421M1256.14 -25.6316H1292.57M1256.14 10.8421V47.3158M1256.14 10.8421H1292.57M1256.14 47.3158V83.7895M1256.14 47.3158H1292.57M1256.14 83.7895V120.263M1256.14 83.7895H1292.57M1256.14 120.263V156.737M1256.14 120.263H1292.57M1256.14 156.737V193.211M1256.14 156.737H1292.57M1256.14 193.211V229.684M1256.14 193.211H1292.57M1256.14 229.684V266.158M1256.14 229.684H1292.57M1256.14 266.158V302.632M1256.14 266.158H1292.57M1256.14 302.632V339.105M1256.14 302.632H1292.57M1256.14 339.105V375.579M1256.14 339.105H1292.57M1256.14 375.579V412.053M1256.14 375.579H1292.57M1256.14 412.053V448.526M1256.14 412.053H1292.57M1256.14 448.526V485M1256.14 448.526H1292.57M1256.14 485H1292.57M1292.57 -208V-171.526M1292.57 -208H1329V-171.526M1292.57 -171.526V-135.053M1292.57 -171.526H1329M1292.57 -135.053V-98.5789M1292.57 -135.053H1329M1292.57 -98.5789V-62.1053M1292.57 -98.5789H1329M1292.57 -62.1053V-25.6316M1292.57 -62.1053H1329M1292.57 -25.6316V10.8421M1292.57 -25.6316H1329M1292.57 10.8421V47.3158M1292.57 10.8421H1329M1292.57 47.3158V83.7895M1292.57 47.3158H1329M1292.57 83.7895V120.263M1292.57 83.7895H1329M1292.57 120.263V156.737M1292.57 120.263H1329M1292.57 156.737V193.211M1292.57 156.737H1329M1292.57 193.211V229.684M1292.57 193.211H1329M1292.57 229.684V266.158M1292.57 229.684H1329M1292.57 266.158V302.632M1292.57 266.158H1329M1292.57 302.632V339.105M1292.57 302.632H1329M1292.57 339.105V375.579M1292.57 339.105H1329M1292.57 375.579V412.053M1292.57 375.579H1329M1292.57 412.053V448.526M1292.57 412.053H1329M1292.57 448.526V485M1292.57 448.526H1329M1292.57 485H1329V448.526M1329 -171.526V-135.053M1329 -135.053V-98.5789M1329 -98.5789V-62.1053M1329 -62.1053V-25.6316M1329 -25.6316V10.8421M1329 10.8421V47.3158M1329 47.3158V83.7895M1329 83.7895V120.263M1329 120.263V156.737M1329 156.737V193.211M1329 193.211V229.684M1329 229.684V266.158M1329 266.158V302.632M1329 302.632V339.105M1329 339.105V375.579M1329 375.579V412.053M1329 412.053V448.526" stroke="url(#paint0_radial_2175_725)" stroke-opacity="0.4"/>
<defs>
<radialGradient id="paint0_radial_2175_725" cx="0" cy="0" r="1" gradientUnits="userSpaceOnUse" gradientTransform="translate(527.5 35.5) rotate(-90) scale(243.5 454.832)">
<stop stop-color="#F3F3F3"/>
<stop offset="1" stop-color="#DEDFE0" stop-opacity="0"/>
</radialGradient>
</defs>
</svg>
